<svg id="Layer_1" data-name="Layer 1" xmlns="http://www.w3.org/2000/svg" viewBox="0 0 180 218.02"><defs><style>.cls-1{fill:#231f20;}</style></defs><path class="cls-1" d="M221.75,248.24,233,244.66v61.08l-11.29-3.59Z" transform="translate(-216.67 -195.98)"/><path class="cls-1" d="M241,242.13l14.82-4.7q3,23.16,5.71,46.35,3-25,5.67-50l14.81-4.7v92.17l-9.23-2.93V252.53q-3.4,31.8-7.1,63.57l-8.36-2.66q-3.39-28.59-7.09-57.15v54.9L241,308.26Z" transform="translate(-216.67 -195.98)"/><path class="cls-1" d="M289.14,226.85c7.49-2.38,11.23-7.56,18.72-5.19,4.08,1.3,7.14,5.06,9.17,11s3,13.62,3,23.37c0,10-1.1,17.78-3.32,23.6s-5.59,9.85-10.13,9.47l-6.17-.5v38.55l-11.31-3.59Zm11.31,40.69,2.76-.13a5,5,0,0,0,4.58-3.43,22.32,22.32,0,0,0,1.32-8.36A29.42,29.42,0,0,0,308,247c-.76-2.46-2.19-3.58-4.3-3.18l-3.21.6Z" transform="translate(-216.67 -195.98)"/><path class="cls-1" d="M325.94,227.4,356.13,237V253.3l-18.9-3.44v14.06l17.53,1.42V281.1l-17.53.85v17.43L356.68,296v17.23L325.94,323Z" transform="translate(-216.67 -195.98)"/><path class="cls-1" d="M362.75,239.08,374,242.66v49l17.58-2.83v13.27l-28.84,9.16Z" transform="translate(-216.67 -195.98)"/><path class="cls-1" d="M237.42,344.1l8,6.84a30.61,30.61,0,0,1-2.54,9.3,10,10,0,0,1-4.3,4.8q-2.58,1.26-6.55,0a16.78,16.78,0,0,1-7.87-4.94q-3.06-3.47-5.27-10.52a57,57,0,0,1-2.22-17q0-13.26,3.9-19.13t11-3.56a15.84,15.84,0,0,1,8.78,6.88q3.2,5.09,4.75,14l-8.06.67a23.67,23.67,0,0,0-.89-3.84,12,12,0,0,0-1.88-3.49,5.28,5.28,0,0,0-2.48-1.81c-2.07-.66-3.65.35-4.76,3-.82,2-1.25,5.33-1.25,10.09q0,8.87,1.5,12.61t4.19,4.58a3.09,3.09,0,0,0,4-1.41A18.75,18.75,0,0,0,237.42,344.1Z" transform="translate(-216.67 -195.98)"/><path class="cls-1" d="M248.71,342.87q0-13,4-18.91t11.23-3.6q7.38,2.37,11.37,10.7t4,21q0,9.21-1.75,14.56t-5,7.62q-3.3,2.26-8.22.76a17.28,17.28,0,0,1-8.28-5.38A29.48,29.48,0,0,1,250.75,359,56.41,56.41,0,0,1,248.71,342.87Zm9.14,2.94q0,8,1.66,12t4.53,4.9q2.94.91,4.56-2T270.21,349q0-7.43-1.68-11.4T264,332.69c-1.84-.59-3.32.11-4.44,2.08S257.85,340.43,257.85,345.81Z" transform="translate(-216.67 -195.98)"/><path class="cls-1" d="M284.16,327.74l12,3.86q2.31,16.63,4.63,33.26,2.29-15.15,4.6-30.3c4.8,1.55,7.2-1.5,12-3V383.8l-7.48,2.3V346.31c-1.85,13.35-3.72,26.7-5.77,40l-6.77-2.08q-2.88-20.85-5.75-41.69v39.92l-7.49-2.3Z" transform="translate(-216.67 -195.98)"/><path class="cls-1" d="M323.61,329.53l9.15-2.94v52.5l-9.15,2.81Z" transform="translate(-216.67 -195.98)"/><path class="cls-1" d="M359,349.39l8,1.84a48.19,48.19,0,0,1-2.55,10.87,23.1,23.1,0,0,1-4.3,7.42,14.33,14.33,0,0,1-6.55,4.07q-4.82,1.47-7.87-.08t-5.27-7.15q-2.22-5.6-2.22-15.37,0-13,3.9-21.3t11-10.57q5.6-1.78,8.78,1.22c2.13,2,3.72,5.65,4.75,10.92L358.66,337a14.72,14.72,0,0,0-.89-3.25,5,5,0,0,0-1.88-2.29,2.92,2.92,0,0,0-2.48-.22c-2.07.66-3.65,2.66-4.76,6A35.93,35.93,0,0,0,347.4,348q0,8.76,1.5,11.54t4.19,2a6.43,6.43,0,0,0,4-3.87A29.07,29.07,0,0,0,359,349.39Z" transform="translate(-216.67 -195.98)"/><path class="cls-1" d="M369.85,350.16l8.69-3.69a15.4,15.4,0,0,0,1.15,5.44c.94,1.86,2.29,2.53,4,2a5,5,0,0,0,3-2.58,8.79,8.79,0,0,0,1.06-4.17,5.44,5.44,0,0,0-1-3.39c-.67-.88-2.24-1.41-4.68-1.62-4-.35-6.86-1.63-8.57-3.77s-2.58-5.28-2.58-9.42a26.17,26.17,0,0,1,1.32-8.15,19,19,0,0,1,4-7,16.14,16.14,0,0,1,7.27-4.42q5.67-1.83,8.64,1c2,1.9,3.16,5.56,3.54,11L387.09,325q-.34-3.5-1.44-4.78a2.64,2.64,0,0,0-3-.67,4,4,0,0,0-2.39,2,6.54,6.54,0,0,0-.81,3.21,3.27,3.27,0,0,0,.66,2.07c.44.55,1.46.9,3.07,1q6,.42,8.58,2a9,9,0,0,1,3.77,4.72,21.55,21.55,0,0,1,1.18,7.54,31.88,31.88,0,0,1-1.57,10,21.58,21.58,0,0,1-4.4,7.92,15.55,15.55,0,0,1-7.12,4.42c-5,1.55-8.51.87-10.44-2S370.1,355.43,369.85,350.16Z" transform="translate(-216.67 -195.98)"/><polygon class="cls-1" points="180 49.27 180 32.4 90 0 0 32.4 0 49.27 90 21.77 180 49.27"/><polygon class="cls-1" points="180 168.75 180 185.63 90 218.03 0 185.63 0 168.75 90 196.26 180 168.75"/></svg>